<svg xmlns="http://www.w3.org/2000/svg" viewBox="0 0 400 300" width="100%" height="100%">
  <rect width="100%" height="100%" fill="#f8fafc"/>
  <rect x="20" y="20" width="360" height="260" rx="8" fill="#ffffff" stroke="#e2e8f0" stroke-width="1.5"/>
  <rect x="20" y="20" width="110" height="260" rx="0" fill="#d97706" opacity="0.05"/>
  <line x1="130" y1="20" x2="130" y2="280" stroke="#e2e8f0" stroke-width="1.5"/>
  <circle cx="75" cy="65" r="22" fill="#d97706" opacity="0.2"/>
  <circle cx="75" cy="65" r="18" fill="#d97706"/>
  <circle cx="75" cy="60" r="6" fill="#ffffff"/>
  <path d="M62 76 Q75 68 88 76" stroke="#ffffff" stroke-width="2" fill="none"/>
  <rect x="40" y="105" width="70" height="6" rx="3" fill="#cbd5e1"/>
  <rect x="40" y="118" width="70" height="4" rx="2" fill="#e2e8f0"/>
  <rect x="40" y="128" width="55" height="4" rx="2" fill="#e2e8f0"/>
  <text x="40" y="160" font-family="system-ui, sans-serif" font-size="8" font-weight="bold" fill="#d97706">EDUCATION</text>
  <rect x="40" y="170" width="65" height="10" rx="3" fill="#d97706" opacity="0.1"/>
  <text x="45" y="178" font-family="system-ui, sans-serif" font-size="6" font-weight="bold" fill="#d97706">Lesson Plans</text>
  <rect x="40" y="186" width="65" height="10" rx="3" fill="#d97706" opacity="0.1"/>
  <text x="45" y="194" font-family="system-ui, sans-serif" font-size="6" font-weight="bold" fill="#d97706">Class Management</text>
  <rect x="40" y="202" width="65" height="10" rx="3" fill="#d97706" opacity="0.1"/>
  <text x="45" y="210" font-family="system-ui, sans-serif" font-size="6" font-weight="bold" fill="#d97706">Remote Learning</text>
  <text x="145" y="52" font-family="system-ui, sans-serif" font-size="12" font-weight="bold" fill="#0f172a">David Henderson</text>
  <text x="145" y="66" font-family="system-ui, sans-serif" font-size="8" font-weight="semibold" fill="#d97706">Certified Educator</text>
  <text x="145" y="90" font-family="system-ui, sans-serif" font-size="7" font-weight="bold" fill="#64748b" letter-spacing="1">PROFESSIONAL SUMMARY</text>
  <line x1="145" y1="96" x2="360" y2="96" stroke="#f1f5f9" stroke-width="1.5"/>
  <rect x="145" y="104" width="215" height="5" rx="2" fill="#94a3b8" opacity="0.6"/>
  <rect x="145" y="114" width="180" height="5" rx="2" fill="#cbd5e1" opacity="0.6"/>
  <text x="145" y="142" font-family="system-ui, sans-serif" font-size="7" font-weight="bold" fill="#64748b" letter-spacing="1">WORK EXPERIENCE</text>
  <line x1="145" y1="148" x2="360" y2="148" stroke="#f1f5f9" stroke-width="1.5"/>
  <text x="145" y="162" font-family="system-ui, sans-serif" font-size="8" font-weight="bold" fill="#334155">High School Teacher - Oak Academy</text>
  <text x="360" y="162" font-family="system-ui, sans-serif" font-size="7" fill="#64748b" text-anchor="end">2021 - Pres</text>
  <circle cx="147" cy="178" r="2" fill="#d97706"/>
  <rect x="155" y="175" width="205" height="4" rx="2" fill="#cbd5e1"/>
  <circle cx="147" cy="188" r="2" fill="#d97706"/>
  <rect x="155" y="185" width="185" height="4" rx="2" fill="#cbd5e1"/>
</svg>
